<svg width="513" height="162" viewBox="0 0 513 162" fill="none" xmlns="http://www.w3.org/2000/svg">
<path d="M279.16 36.796H242.754V139H225.052V36.796H188.813V20.43H279.16V36.796ZM267.384 94.745C267.384 85.393 269.109 77.2657 272.561 70.363C276.012 63.349 280.911 57.9493 287.257 54.164C293.603 50.3787 300.951 48.486 309.301 48.486C316.537 48.486 323.05 50.1003 328.84 53.329C334.74 56.5577 339.472 61.5677 343.035 68.359C346.709 75.1503 348.713 83.6117 349.047 93.743L349.214 99.755H285.587C286.255 108.105 288.648 114.562 292.768 119.127C296.887 123.692 302.398 125.974 309.301 125.974C313.754 125.974 317.818 124.805 321.492 122.467C325.166 120.018 327.893 116.678 329.675 112.447L347.878 113.783C345.317 122.022 340.474 128.646 333.349 133.656C326.335 138.555 318.319 141.004 309.301 141.004C300.951 141.004 293.603 139.111 287.257 135.326C280.911 131.541 276.012 126.197 272.561 119.294C269.109 112.28 267.384 104.097 267.384 94.745ZM330.844 86.395C329.73 78.4903 327.225 72.701 323.329 69.027C319.432 65.353 314.756 63.516 309.301 63.516C302.843 63.516 297.611 65.52 293.603 69.528C289.595 73.536 287.034 79.1583 285.921 86.395H330.844ZM373.298 50.49L373.966 74.371L372.63 73.202C373.632 65.2973 375.915 59.5637 379.477 56.001C383.04 52.327 388.161 50.49 394.841 50.49H403.358V64.852H394.674C390.221 64.852 386.491 65.687 383.485 67.357C380.479 69.027 378.253 71.532 376.805 74.872C375.469 78.1007 374.801 82.22 374.801 87.23V139H357.433V50.49H373.298ZM405.005 76.876C406.786 68.0807 410.961 61.178 417.53 56.168C424.098 51.0467 432.448 48.486 442.58 48.486C454.604 48.486 463.789 51.7147 470.135 58.172C476.481 64.518 479.654 73.7587 479.654 85.894V119.294C479.654 121.298 480.099 122.745 480.99 123.636C481.88 124.527 483.216 124.972 484.998 124.972H488.672V139H482.827H482.159C479.041 139 476.147 138.666 473.475 137.998C470.803 137.33 468.52 135.994 466.628 133.99C464.735 131.986 463.733 129.147 463.622 125.473C461.506 129.926 457.999 133.656 453.101 136.662C448.202 139.557 442.301 141.004 435.399 141.004C426.158 141.004 418.532 138.722 412.52 134.157C406.508 129.592 403.502 123.469 403.502 115.787C403.502 110.109 404.782 105.544 407.343 102.093C410.015 98.6417 413.689 95.9697 418.365 94.077C423.152 92.1843 429.331 90.5143 436.902 89.067L462.286 84.057C462.174 76.9317 460.504 71.6433 457.276 68.192C454.047 64.7407 449.148 63.015 442.58 63.015C437.458 63.015 433.228 64.2953 429.888 66.856C426.548 69.4167 424.21 73.1463 422.874 78.045L405.005 76.876ZM421.538 115.453C421.538 118.904 422.985 121.743 425.88 123.97C428.886 126.197 433.172 127.31 438.739 127.31C443.303 127.31 447.367 126.252 450.93 124.137C454.604 121.91 457.443 118.626 459.447 114.284C461.562 109.942 462.62 104.654 462.62 98.419V97.584L443.582 100.924L440.409 101.425C435.844 102.316 432.337 103.151 429.888 103.93C427.438 104.598 425.434 105.878 423.876 107.771C422.317 109.664 421.538 112.224 421.538 115.453ZM512.061 50.49V139H494.693V50.49H512.061ZM512.562 20.43V37.297H494.526V20.43H512.562Z" fill="white"/>
<path d="M80.2002 147.825C93.1788 149.958 106.498 148.252 118.52 142.918C130.543 137.583 140.745 128.853 147.873 117.799C155.001 106.746 158.744 93.8502 158.642 80.6979C158.541 67.5456 154.599 54.7095 147.302 43.767" stroke="#5E6AD2" strokeWidth="14" stroke-linecap="round" stroke-linejoin="round"/>
<path d="M101.125 14.175C88.1997 12.2012 74.9791 14.0239 63.0698 19.4218C51.1606 24.8196 41.0755 33.5602 34.04 44.5815C27.0044 55.6027 23.3213 68.4301 23.4382 81.505C23.5551 94.5799 27.467 107.339 34.6985 118.233" stroke="#5E6AD2" strokeWidth="14" stroke-linecap="round" stroke-linejoin="round"/>
<path d="M91 119C111.987 119 129 101.987 129 81C129 60.0132 111.987 43 91 43C70.0132 43 53 60.0132 53 81C53 101.987 70.0132 119 91 119Z" fill="#FF8900"/>
<path d="M139 45C147.284 45 154 38.2843 154 30C154 21.7157 147.284 15 139 15C130.716 15 124 21.7157 124 30C124 38.2843 130.716 45 139 45Z" fill="white"/>
<path d="M45.25 144.75C53.5343 144.75 60.25 138.034 60.25 129.75C60.25 121.466 53.5343 114.75 45.25 114.75C36.9657 114.75 30.25 121.466 30.25 129.75C30.25 138.034 36.9657 144.75 45.25 144.75Z" fill="white"/>
</svg>
